<svg width="80" height="55" viewBox="0 0 80 55" fill="none" xmlns="http://www.w3.org/2000/svg">
<path d="M50.5703 34.9676L55.529 38.3358C55.529 38.3358 58.9262 41.9896 62.7562 42.8742C66.5862 43.7588 71.5504 46.5281 72.2408 47.094C72.9312 47.6599 73.123 49.8413 73.123 49.8413L77.7091 51.4896L79.5282 46.7039L51.0361 30.0391L50.5703 34.9676Z" fill="#FCA850"/>
<g style="mix-blend-mode:multiply">
<path d="M53.3921 34.7952C54.3291 35.5425 55.2113 36.3667 56.1646 37.0974C61.1343 40.8996 67.7588 41.8996 72.8983 45.4766C74.1266 46.4388 75.407 47.3321 76.7338 48.1524C77.3491 48.489 78.0072 48.7404 78.6899 48.8996L77.6981 51.4985L73.112 49.8502C73.112 49.8502 72.9202 47.6524 72.2298 47.1029C71.5394 46.5535 66.5752 43.7623 62.7452 42.8832C58.9152 42.004 55.5016 38.3337 55.5016 38.3337L50.5703 34.9656L50.7566 32.9766C51.6769 33.5195 52.5576 34.1273 53.3921 34.7952Z" fill="#D6D2C8"/>
</g>
<path d="M46.7062 39.2799L34.8984 33.2305" stroke="#272B2C" stroke-width="0.88" stroke-linecap="round" stroke-linejoin="round"/>
<path d="M51.0133 30.0509L50.5421 34.996L47.9011 41.3256C47.9011 41.3256 10.3955 25.7322 0.5 3.52344L51.0133 30.0509Z" fill="white"/>
<path d="M48.9068 30.9687L5.86719 7.46875" stroke="#272B2C" stroke-width="0.88" stroke-linecap="round" stroke-linejoin="round"/>
<path d="M49.9475 36.4133L47.9092 41.2979C47.9092 41.2979 12.0036 26.3694 1.1875 4.90234C21.2854 25.5892 44.4244 34.4958 49.9475 36.4133Z" fill="#DCDCDC"/>
<path d="M75.2266 47.9854C75.2266 48.2267 75.2979 48.4625 75.4316 48.6631C75.5652 48.8637 75.7552 49.02 75.9775 49.1123C76.1997 49.2046 76.4443 49.2288 76.6803 49.1817C76.9162 49.1347 77.133 49.0185 77.3031 48.8479C77.4732 48.6773 77.589 48.46 77.636 48.2234C77.6829 47.9868 77.6588 47.7415 77.5668 47.5186C77.4747 47.2957 77.3188 47.1052 77.1188 46.9712C76.9187 46.8372 76.6835 46.7656 76.443 46.7656C76.1204 46.7656 75.811 46.8941 75.5828 47.1229C75.3547 47.3516 75.2266 47.6619 75.2266 47.9854Z" fill="#272B2C"/>
<path d="M59.1585 13.518C59.1585 13.518 53.4272 6.82568 39.9811 10.3806C26.5514 6.82568 20.8036 13.518 20.8036 13.518C6.85343 26.463 17.2202 44.8916 17.2202 44.8916C24.1898 53.9411 38.4414 54.9191 39.9043 54.996H40.0249C41.4878 54.9191 55.7394 53.9411 62.709 44.8916C62.7419 44.8916 73.1087 26.463 59.1585 13.518Z" fill="#BB1807"/>
<path d="M60.7336 30.9336C61.3385 33.2158 61.3977 35.609 60.9064 37.9186C60.4151 40.2281 59.3872 42.3887 57.9062 44.2248" stroke="#272B2C" stroke-width="0.88" stroke-linecap="round" stroke-linejoin="round"/>
<path d="M61.4297 20.6758C61.5009 20.6758 61.5612 20.7362 61.5886 20.8077C61.9544 21.7218 62.1261 22.7024 62.0927 23.6868" stroke="#272B2C" stroke-width="0.88" stroke-linecap="round" stroke-linejoin="round"/>
<path d="M17.7969 33.5156C17.8494 36.8332 19.0066 40.0379 21.0844 42.62" stroke="#272B2C" stroke-width="0.88" stroke-linecap="round" stroke-linejoin="round"/>
<g style="mix-blend-mode:multiply">
<path d="M62.8306 17.8008C63.022 19.061 63.119 20.3338 63.121 21.6085C63.121 35.7678 51.2803 47.2513 36.6726 47.2513C32.1213 47.2795 27.6387 46.1372 23.653 43.9334C19.6674 41.7296 16.3116 38.5381 13.9062 34.6634C14.4674 38.2307 15.5997 41.6837 17.2596 44.8887C24.2292 53.9381 38.4807 54.9162 39.9382 54.9931H40.0642C41.5217 54.9162 55.7733 53.9381 62.7429 44.8887C62.7429 44.8887 71.0221 30.1744 62.8306 17.8008Z" fill="#BD92AA"/>
</g>
<path d="M45.1506 9.59342C45.1506 9.59342 51.6544 15.8297 58.4871 19.9396C58.4871 19.9396 59.5829 20.8352 58.9583 20.6484C58.3337 20.4615 52.0325 17.6264 50.1476 16.3956C48.2628 15.1649 42.8438 11.055 41.7096 11.956C40.5754 12.8571 36.3892 17.011 34.9756 19.7033C34.585 18.6648 34.6006 17.5165 35.0194 16.489C35.6898 15.0717 36.4779 13.7134 37.3755 12.4286C37.3755 12.4286 31.4853 12.2363 28.0005 14.9341C28.0005 14.9341 28.8936 13.1813 33.277 11.7637C37.6604 10.3462 35.4687 10.6648 34.0331 10.5385C32.5976 10.4121 21.8253 9.87363 20.0391 10.3022C18.2529 10.7308 27.3868 7.23078 34.7838 8.5055C34.7838 8.5055 35.5892 8.5055 34.8824 7.79671C34.1756 7.08791 31.2058 2.54945 31.4853 0C31.4853 0 35.1619 7.56045 38.3672 8.03298C38.3672 8.03298 42.6849 7.15385 46.0382 6.15385C47.2598 5.78653 48.5125 5.53271 49.7805 5.39561C50.2529 5.33185 50.7286 5.29699 51.2051 5.29121C51.7257 5.34066 45.8793 7.27473 43.9013 8.74176C43.9013 8.74176 49.2271 7.93956 51.1558 7.98352C53.0845 8.02747 59.2158 8.88461 61.6651 11.2802C61.6431 11.2912 51.2764 7.18133 45.1506 9.59342Z" fill="#B4D627"/>
<path d="M57.5895 20.0074C55.9457 19.6722 50.0993 16.4909 47.2282 14.414C45.6532 13.229 43.8817 12.3324 41.9955 11.7656C39.3024 14.0754 36.9404 16.7472 34.9766 19.7052" stroke="#272B2C" stroke-width="0.88" stroke-linecap="round" stroke-linejoin="round"/>
<path d="M28 14.9341C28 14.9341 29.4958 12.6978 34.8491 11.2418L38.7174 10" stroke="#272B2C" stroke-width="0.88" stroke-linecap="round" stroke-linejoin="round"/>
<path d="M42.0114 10.9015H38.5156V6.50594C38.5156 6.27432 38.5611 6.04496 38.6495 5.83098C38.7379 5.61699 38.8675 5.42255 39.0308 5.25877C39.1941 5.09499 39.388 4.96508 39.6014 4.87645C39.8148 4.78781 40.0435 4.74219 40.2745 4.74219C40.7409 4.74219 41.1883 4.92801 41.5182 5.25877C41.848 5.58954 42.0333 6.03816 42.0333 6.50594L42.0114 10.9015Z" fill="#B4D627"/>
<g style="mix-blend-mode:multiply">
<path d="M42.0114 7.71484V10.9017H38.5156V8.98407C39.1576 9.00621 39.7973 8.89587 40.395 8.6599C40.9711 8.41392 41.5141 8.09642 42.0114 7.71484Z" fill="#B4D627"/>
</g>
<path d="M42.0078 10.903V5.76562" stroke="#272B2C" stroke-width="0.88" stroke-linecap="round" stroke-linejoin="round"/>
<path d="M29.4634 34.9676L24.4992 38.3358C24.4992 38.3358 21.1075 41.9896 17.272 42.8742C13.4365 43.7588 8.5052 46.5281 7.78742 47.094C7.06963 47.6599 6.90525 49.8413 6.90525 49.8413L2.31911 51.4896L0.5 46.7039L28.9922 30.0391L29.4634 34.9676Z" fill="#FCA850"/>
<g style="mix-blend-mode:multiply">
<path d="M26.6071 34.796C25.6702 35.5432 24.7935 36.3674 23.8401 37.0982C18.8704 40.9004 12.2405 41.9004 7.10641 45.4773C5.87899 46.4407 4.59847 47.334 3.27093 48.1531C2.6575 48.4897 2.00128 48.7411 1.32031 48.9004L2.30658 51.4993L6.89272 49.8509C6.89272 49.8509 7.0845 47.6531 7.77488 47.1037C8.46527 46.5542 13.4295 43.763 17.2595 42.8839C21.0895 42.0048 24.4866 38.3454 24.4866 38.3454L29.4508 34.9773L29.2591 32.9883C28.3342 33.5283 27.4481 34.1323 26.6071 34.796Z" fill="#D6D2C8"/>
</g>
<path d="M33.2969 39.2799L45.1102 33.2305" stroke="#272B2C" stroke-width="0.88" stroke-linecap="round" stroke-linejoin="round"/>
<path d="M28.9922 30.0509L29.4634 34.996L32.0989 41.3256C32.0989 41.3256 69.6045 25.7322 79.5 3.52344L28.9922 30.0509Z" fill="white"/>
<path d="M31.0938 30.9687L74.1279 7.46875" stroke="#272B2C" stroke-width="0.88" stroke-linecap="round" stroke-linejoin="round"/>
<path d="M30.0625 36.4125L32.0953 41.2971C32.0953 41.2971 68.0009 26.3685 78.817 4.91797C58.719 25.5883 35.5856 34.4949 30.0625 36.4125Z" fill="#DCDCDC"/>
<path d="M4.76405 47.9854C4.76514 48.2282 4.69426 48.4659 4.56041 48.6682C4.42657 48.8705 4.2358 49.0284 4.01231 49.1218C3.78882 49.2153 3.54268 49.24 3.30515 49.1929C3.06762 49.1458 2.84941 49.029 2.67819 48.8573C2.50698 48.6856 2.3905 48.4668 2.34352 48.2286C2.29655 47.9904 2.32121 47.7436 2.41437 47.5195C2.50753 47.2954 2.66499 47.1041 2.86677 46.9698C3.06854 46.8356 3.30553 46.7646 3.54766 46.7656C3.86982 46.7671 4.17838 46.8961 4.40619 47.1245C4.63399 47.3529 4.76261 47.6624 4.76405 47.9854Z" fill="#272B2C"/>
</svg>
