<svg width="3" height="11" viewBox="0 0 3 11" fill="none" xmlns="http://www.w3.org/2000/svg">
<g clip-path="url(#clip0_2795_1847)">
<path d="M1.49297 0.000985498C2.31872 -0.00184784 2.99609 0.669527 2.99897 1.49365C3.00184 2.31924 2.33038 2.9969 1.5063 3.00003C0.681592 3.00315 0.00280008 2.33032 8.40877e-06 1.50699C-0.00274159 0.681819 0.669383 0.00377716 1.49297 0.000985498Z" fill="#2E2E2E"/>
<path d="M1.4921 6.99954C0.668762 6.99617 -0.00327963 6.31734 1.20406e-05 5.49234C0.00326204 4.669 0.682053 3.99708 1.50709 4.0005C2.33139 4.00392 3.00226 4.68158 2.99893 5.50733C2.9956 6.33121 2.31726 7.00292 1.4921 6.99954Z" fill="#2E2E2E"/>
<path d="M1.50167 8.00049C2.32642 8.00157 2.99992 8.67691 2.99892 9.50191C2.99792 10.3265 2.32225 11.0004 1.4975 10.9995C0.673585 10.9986 -0.00099889 10.3222 1.11037e-06 9.49774C0.000959444 8.67378 0.677292 7.99945 1.50167 8.00049Z" fill="#2E2E2E"/>
</g>
<defs>
<clipPath id="clip0_2795_1847">
<rect width="3" height="11" fill="white"/>
</clipPath>
</defs>
</svg>
