<svg width="31" height="31" viewBox="0 0 31 31" fill="none" xmlns="http://www.w3.org/2000/svg">
<rect width="31" height="31" rx="3" fill="#C14141"/>
<path d="M16.703 8.00024C16.9332 8.08778 17.182 8.14427 17.39 8.26887C17.9499 8.60433 18.2337 9.11737 18.2558 9.77115C18.2606 9.91224 18.2565 10.0536 18.2565 10.217C18.3223 10.217 18.3791 10.217 18.4358 10.217C19.1731 10.2171 19.9104 10.2139 20.6476 10.2186C21.0561 10.2213 21.3249 10.5415 21.2468 10.9213C21.2067 11.1163 21.0937 11.2632 20.9089 11.3329C20.8051 11.3721 20.7859 11.427 20.786 11.5259C20.7885 13.552 20.7882 15.578 20.7869 17.604C20.7868 17.7011 20.7869 17.8017 20.7631 17.8945C20.6947 18.1621 20.4373 18.3331 20.1518 18.3139C19.8892 18.2962 19.6663 18.0898 19.6282 17.8234C19.6172 17.7466 19.6164 17.6678 19.6163 17.5899C19.6158 15.5931 19.6159 13.5964 19.6159 11.5997C19.6159 11.537 19.6159 11.4743 19.6159 11.4003C16.8726 11.4003 14.1415 11.4003 11.395 11.4003C11.3925 11.4524 11.3879 11.504 11.3879 11.5557C11.3875 14.5582 11.3871 17.5606 11.3879 20.563C11.3882 21.3471 11.8738 21.828 12.6609 21.828C14.5749 21.8282 16.4888 21.8289 18.4028 21.8276C18.9992 21.8272 19.4684 21.4582 19.5899 20.896C19.6104 20.8012 19.6098 20.7021 19.6221 20.6054C19.6629 20.2841 19.9265 20.0561 20.233 20.0754C20.5584 20.0959 20.7887 20.3541 20.7859 20.6949C20.7773 21.7186 20.071 22.6364 19.0781 22.9112C18.952 22.9461 18.823 22.9706 18.6954 23C16.5663 23 14.4372 23 12.3081 23C12.2806 22.9913 12.2537 22.9788 12.2255 22.9746C11.6029 22.8808 11.0969 22.5847 10.7088 22.0911C10.3571 21.6438 10.2131 21.1302 10.2138 20.5635C10.2176 17.5657 10.2151 14.5679 10.2174 11.57C10.2174 11.4494 10.2066 11.3676 10.069 11.3181C9.89995 11.2574 9.79909 11.1129 9.75874 10.936C9.67097 10.5514 9.94135 10.2214 10.3555 10.2187C11.0929 10.2138 11.8302 10.2172 12.5675 10.2171C12.6243 10.2171 12.6811 10.2171 12.732 10.2171C12.7402 10.1856 12.7447 10.1761 12.7447 10.1666C12.7457 10.0446 12.7445 9.92251 12.7468 9.80048C12.7595 9.12749 13.0496 8.60426 13.6262 8.26176C13.8306 8.14036 14.0746 8.08552 14.3005 8.00028C15.1013 8.00024 15.9021 8.00024 16.703 8.00024ZM13.921 10.2069C14.9832 10.2069 16.029 10.2069 17.0812 10.2069C17.0812 10.0365 17.0934 9.87493 17.0785 9.71587C17.0511 9.42146 16.7965 9.17909 16.4985 9.17557C15.8353 9.16772 15.1718 9.16795 14.5086 9.17534C14.2042 9.1787 13.9465 9.42732 13.9232 9.72642C13.9111 9.88118 13.921 10.0377 13.921 10.2069Z" fill="white"/>
<path d="M14.9146 16.5976C14.9146 15.7824 14.9134 14.9672 14.9153 14.152C14.916 13.886 15.0662 13.6762 15.3061 13.5905C15.5327 13.5097 15.7996 13.5675 15.9393 13.7644C16.0165 13.8732 16.0795 14.0205 16.0802 14.1509C16.0896 15.786 16.0874 17.4213 16.0855 19.0565C16.0852 19.402 15.8306 19.6594 15.5009 19.6598C15.1718 19.6602 14.9164 19.4019 14.9153 19.0578C14.913 18.2377 14.9146 17.4176 14.9146 16.5976Z" fill="white"/>
<path d="M18.325 16.6072C18.325 17.4125 18.3263 18.2178 18.3243 19.0231C18.3235 19.3473 18.1678 19.5623 17.8885 19.6386C17.5603 19.7282 17.2216 19.5128 17.1667 19.1776C17.1573 19.1201 17.1537 19.0611 17.1536 19.0027C17.153 17.4067 17.1537 15.8108 17.1523 14.2148C17.1522 14.0211 17.1936 13.8453 17.3433 13.7121C17.5287 13.5471 17.7444 13.5106 17.97 13.6055C18.1974 13.7012 18.3195 13.8848 18.3223 14.1326C18.3275 14.606 18.3247 15.0795 18.325 15.5529C18.3252 15.9043 18.3251 16.2557 18.325 16.6072Z" fill="white"/>
<path d="M12.677 16.5978C12.6771 15.7876 12.6733 14.9774 12.6786 14.1672C12.6815 13.7213 13.089 13.4371 13.4821 13.5998C13.6814 13.6822 13.8025 13.8337 13.8364 14.0489C13.8455 14.1064 13.8483 14.1654 13.8483 14.2238C13.8489 15.8149 13.8493 17.406 13.8484 18.997C13.8482 19.3464 13.6878 19.5708 13.3929 19.6437C13.0658 19.7246 12.7253 19.4944 12.6867 19.1595C12.6729 19.0389 12.6773 18.9159 12.6772 18.794C12.6765 18.062 12.6768 17.3299 12.677 16.5978Z" fill="white"/>
</svg>
