<svg width="31" height="31" viewBox="0 0 31 31" fill="none" xmlns="http://www.w3.org/2000/svg">
<rect width="31" height="31" rx="3" fill="#4164C1"/>
<g clip-path="url(#clip0_1357_2653)">
<path d="M23 16.2617C22.9808 16.3062 22.9629 16.3514 22.942 16.3951C22.8284 16.6331 22.5645 16.77 22.3132 16.7222C22.0411 16.6704 21.839 16.4466 21.8304 16.1722C21.823 15.9332 21.8282 15.6938 21.8282 15.4546C21.8281 13.7896 21.8282 12.1247 21.8281 10.4597C21.8281 9.65495 21.3479 9.1719 20.5478 9.17187C17.1789 9.17179 13.8099 9.17176 10.441 9.1719C9.65806 9.17193 9.17202 9.6582 9.17199 10.4415C9.17185 13.8153 9.17182 17.1891 9.17199 20.5629C9.17202 21.3374 9.66014 21.8279 10.4311 21.828C12.3988 21.8283 14.3664 21.8276 16.3341 21.8285C16.7955 21.8287 17.087 22.24 16.9172 22.6433C16.8365 22.8349 16.6787 22.931 16.4961 23C14.3574 23 12.2188 23 10.0801 23C10.0533 22.9909 10.0271 22.9785 9.99957 22.9734C9.00521 22.7891 8.36586 22.2097 8.07614 21.243C8.04444 21.1372 8.02508 21.0277 8 20.9199C8 17.3066 8 13.6933 8 10.08C8.00896 10.0532 8.02127 10.0269 8.02637 9.99928C8.21047 9.00468 8.79031 8.3658 9.75682 8.07603C9.86267 8.0443 9.97224 8.02505 10.0801 8C13.6933 8 17.3067 8 20.9199 8C20.9468 8.00899 20.973 8.02221 21.0006 8.02634C21.9365 8.16638 22.6926 8.84967 22.9286 9.77085C22.9548 9.8733 22.9763 9.97698 23 10.0801C23 12.1406 23 14.2012 23 16.2617Z" fill="white"/>
<path d="M22.2969 22.9999C22.1588 22.904 22.0071 22.8227 21.8855 22.7092C21.6109 22.4531 21.3494 22.1828 21.087 21.914C21.0285 21.854 20.9857 21.8497 20.9117 21.8878C19.2916 22.7235 17.4191 21.8248 17.066 20.0443C16.7798 18.6006 17.8432 17.1346 19.302 16.9619C20.7338 16.7924 21.9752 17.6887 22.2521 19.0967C22.3652 19.6721 22.2831 20.3579 21.8443 21.0551C21.9486 21.1466 22.0651 21.2411 22.1728 21.3449C22.3554 21.521 22.5405 21.6957 22.709 21.8848C22.8201 22.0096 22.904 22.1586 23 22.2968C23 22.375 23 22.4531 23 22.5312C22.9242 22.7679 22.7682 22.9244 22.5313 23C22.4531 22.9999 22.375 22.9999 22.2969 22.9999ZM21.1245 19.577C21.1266 18.7724 20.472 18.1117 19.6688 18.1078C18.8641 18.1039 18.2011 18.7574 18.1958 19.5596C18.1904 20.3704 18.8495 21.0358 19.6587 21.0366C20.4626 21.0373 21.1223 20.3804 21.1245 19.577Z" fill="white"/>
<path d="M16.9645 11.3111C17.8037 11.3111 18.6429 11.3094 19.4821 11.3121C19.7667 11.313 19.9873 11.4937 20.0541 11.7663C20.1157 12.0174 19.9983 12.2908 19.7615 12.4079C19.673 12.4517 19.5665 12.4795 19.468 12.4797C17.7994 12.484 16.1308 12.4838 14.4621 12.482C14.1175 12.4816 13.86 12.2265 13.8599 11.8971C13.8598 11.5674 14.1172 11.3127 14.4615 11.3118C15.2958 11.3095 16.1302 11.3111 16.9645 11.3111Z" fill="white"/>
<path d="M16.9688 15.9987C16.1344 15.9987 15.3001 15.999 14.4658 15.9985C14.2253 15.9984 14.0397 15.8956 13.9277 15.683C13.8185 15.4755 13.8344 15.2672 13.9695 15.0748C14.0942 14.897 14.2722 14.8259 14.487 14.8262C15.6238 14.8278 16.7606 14.8269 17.8975 14.8269C18.4098 14.8269 18.9221 14.8263 19.4344 14.8272C19.8055 14.8278 20.0676 15.0687 20.0697 15.4087C20.0719 15.7542 19.8076 15.9983 19.4278 15.9986C18.6081 15.9992 17.7885 15.9988 16.9688 15.9987Z" fill="white"/>
<path d="M14.8603 18.5464C15.0016 18.5465 15.1431 18.5424 15.2842 18.5474C15.6052 18.5588 15.8534 18.819 15.851 19.1367C15.8488 19.4474 15.6034 19.7068 15.2891 19.7155C15.0018 19.7235 14.7139 19.723 14.4266 19.7158C14.1054 19.7078 13.8575 19.4443 13.8599 19.127C13.8623 18.8097 14.1128 18.5559 14.4363 18.547C14.5776 18.5431 14.719 18.5463 14.8603 18.5464Z" fill="white"/>
<path d="M11.805 12.4821C11.7076 12.4822 11.6101 12.4844 11.5127 12.4818C11.1818 12.4728 10.9285 12.2159 10.9302 11.8928C10.9319 11.5696 11.1862 11.3169 11.5197 11.3113C11.7145 11.308 11.9095 11.3074 12.1043 11.3114C12.4358 11.3183 12.6886 11.5759 12.687 11.8998C12.6854 12.2169 12.4353 12.4709 12.112 12.4815C12.0098 12.4849 11.9074 12.482 11.805 12.4821Z" fill="white"/>
<path d="M11.8067 15.9983C11.7044 15.9983 11.6019 16.0015 11.4998 15.9977C11.1781 15.9857 10.9292 15.728 10.9302 15.4109C10.9311 15.0934 11.1808 14.8365 11.5034 14.8283C11.7079 14.823 11.9128 14.8227 12.1173 14.8284C12.4391 14.8375 12.6878 15.0969 12.687 15.4145C12.6861 15.7318 12.4367 15.9868 12.1136 15.9978C12.0114 16.0013 11.909 15.9984 11.8067 15.9983Z" fill="white"/>
<path d="M11.8015 19.7188C11.7041 19.7188 11.6065 19.7213 11.5092 19.7184C11.1791 19.7086 10.9267 19.4494 10.9302 19.126C10.9337 18.8089 11.1846 18.5556 11.5087 18.5483C11.7083 18.5438 11.9083 18.5438 12.1079 18.5483C12.4382 18.5557 12.6904 18.8162 12.687 19.1401C12.6836 19.4568 12.4327 19.7087 12.1084 19.7184C12.0062 19.7214 11.9038 19.7188 11.8015 19.7188Z" fill="white"/>
</g>
<defs>
<clipPath id="clip0_1357_2653">
<rect width="15" height="15" fill="white" transform="translate(8 8)"/>
</clipPath>
</defs>
</svg>
