<svg width="31" height="31" viewBox="0 0 31 31" fill="none" xmlns="http://www.w3.org/2000/svg">
<rect width="31" height="31" rx="3" fill="#F8BE4C"/>
<g clip-path="url(#clip0_1736_436)">
<path d="M19.7013 8.00003C20.7812 8.21243 21.4814 8.96943 22.1625 9.7405C22.385 9.99236 22.5773 10.2838 22.7261 10.5854C23.1116 11.3668 22.99 12.1524 22.3766 12.7737C21.4509 13.7115 20.5053 14.6299 19.5635 15.5518C19.3128 15.7971 18.9699 15.7738 18.7067 15.5108C17.7743 14.5793 16.8427 13.647 15.9107 12.7152C15.8734 12.6779 15.8346 12.6423 15.8192 12.6276C14.133 14.2992 12.4529 15.9646 10.7724 17.6306C11.6299 18.4811 12.4818 19.3262 13.3424 20.1799C13.4975 20.0241 13.6682 19.8531 13.8383 19.6817C14.8146 18.6978 15.7915 17.7146 16.766 16.7289C16.9028 16.5905 17.0555 16.4989 17.2542 16.5095C17.4946 16.5223 17.6724 16.6406 17.7645 16.8617C17.8585 17.0869 17.825 17.3048 17.6555 17.4848C17.4388 17.7148 17.213 17.9364 16.9904 18.1607C15.9352 19.2239 14.8791 20.2862 13.8253 21.3506C13.7025 21.4746 13.5666 21.5602 13.3955 21.6083C11.8768 22.0354 10.3594 22.4671 8.8427 22.9014C8.60422 22.9697 8.38786 22.9538 8.20608 22.7763C8.01995 22.5945 7.99842 22.3747 8.06712 22.1297C8.49456 20.6059 8.91518 19.0802 9.3466 17.5575C9.38319 17.4284 9.4608 17.2956 9.5554 17.2004C12.3804 14.3582 15.211 11.5214 18.0375 8.68062C18.3832 8.33328 18.7831 8.09759 19.2636 8C19.4095 8.00003 19.5554 8.00003 19.7013 8.00003ZM20.7336 12.7878C21.0052 12.5115 21.2803 12.2369 21.5492 11.9565C21.8056 11.689 21.8399 11.3863 21.6694 11.0595C21.6335 10.9907 21.5982 10.9207 21.5538 10.8574C21.1455 10.2746 20.6515 9.77665 20.0634 9.37511C19.9683 9.31019 19.8591 9.26349 19.7519 9.21913C19.511 9.11932 19.2732 9.14516 19.0818 9.31672C18.7607 9.60456 18.4578 9.91273 18.1525 10.2074C19.0158 11.0705 19.8644 11.9188 20.7336 12.7878ZM16.6462 11.7541C17.4922 12.6004 18.3357 13.4442 19.1854 14.2941C19.401 14.0679 19.6275 13.8302 19.8338 13.6137C18.9966 12.7748 18.1507 11.9272 17.3168 11.0916C17.097 11.3088 16.8661 11.5369 16.6462 11.7541ZM10.2105 18.7851C10.0694 19.2913 9.92296 19.8093 9.78406 20.3293C9.77393 20.3672 9.80712 20.4304 9.83908 20.4636C10.0515 20.6842 10.2716 20.8974 10.4833 21.1186C10.5469 21.1851 10.6029 21.1918 10.6878 21.1663C11.055 21.0563 11.4247 20.9544 11.7933 20.8493C11.9216 20.8128 12.0497 20.7756 12.1798 20.7382C11.518 20.0818 10.8675 19.4367 10.2105 18.7851Z" fill="white"/>
<path d="M18.8103 22.9156C17.6437 22.9155 16.4771 22.9168 15.3106 22.9148C14.9174 22.9142 14.6546 22.6193 14.7055 22.2454C14.7417 21.9798 14.9625 21.7753 15.2401 21.7515C15.2788 21.7482 15.3178 21.7497 15.3567 21.7497C17.6656 21.7497 19.9744 21.7503 22.2832 21.7485C22.4771 21.7484 22.652 21.7903 22.784 21.9381C22.9472 22.121 22.99 22.3335 22.8921 22.5608C22.7948 22.7869 22.6151 22.9106 22.3683 22.9133C21.8726 22.9186 21.3768 22.9155 20.881 22.9156C20.1908 22.9158 19.5005 22.9156 18.8103 22.9156Z" fill="white"/>
</g>
<defs>
<clipPath id="clip0_1736_436">
<rect width="15" height="15" fill="white" transform="translate(8 8)"/>
</clipPath>
</defs>
</svg>
