<svg width="16" height="17" viewBox="0 0 16 17" fill="none" xmlns="http://www.w3.org/2000/svg">
<path d="M11.8841 11.2636C12.2128 11.5913 12.5365 11.9135 12.8596 12.2364C13.3842 12.7604 13.9101 13.2831 14.4318 13.81C14.6531 14.0336 14.734 14.3031 14.64 14.6093C14.5489 14.9061 14.3434 15.0905 14.0414 15.1547C13.736 15.2196 13.4877 15.1054 13.2727 14.8896C12.4879 14.1014 11.7001 13.3163 10.9144 12.5291C10.8666 12.4813 10.8275 12.4249 10.7815 12.3692C9.27613 13.4606 7.6366 13.8301 5.84859 13.4187C4.43294 13.093 3.29281 12.3195 2.44231 11.1436C0.706293 8.74343 1.02967 5.42958 3.18268 3.41626C5.35433 1.38549 8.66788 1.28386 10.9564 3.17613C13.3016 5.11525 13.8451 8.63903 11.8841 11.2636ZM7.20344 11.9929C9.57963 11.9936 11.4903 10.0885 11.4969 7.712C11.5035 5.32993 9.59075 3.41186 7.20631 3.40939C4.83174 3.40697 2.91936 5.31416 2.91348 7.69055C2.9076 10.0744 4.81988 11.9922 7.20344 11.9929Z" fill="#A8A8A8"/>
</svg>
