<svg width="12" height="7" viewBox="0 0 12 7" fill="none" xmlns="http://www.w3.org/2000/svg">
<g clip-path="url(#clip0_2795_2346)">
<path d="M-0.0132513 1.1419C0.0421152 0.956747 0.130382 0.790554 0.308815 0.667058C0.607781 0.460088 1.04195 0.455747 1.34142 0.664349C1.39938 0.704718 1.45388 0.74934 1.50635 0.795184C2.96782 2.07167 4.42885 3.34851 5.88955 4.62563C5.92248 4.65444 5.95095 4.68715 6.01732 4.75428C6.05185 4.70296 6.06838 4.66114 6.10058 4.63294C7.57152 3.34539 9.04442 2.05958 10.5154 0.772058C10.7747 0.545078 11.0715 0.450069 11.4321 0.547351C11.9679 0.691962 12.1854 1.28949 11.8432 1.67756C11.8051 1.72079 11.7635 1.76218 11.7194 1.80077C10.0262 3.28099 8.33278 4.76098 6.63871 6.24047C6.32211 6.51697 5.92865 6.57362 5.57155 6.38981C5.48528 6.34539 5.40858 6.28332 5.33712 6.22093C3.68668 4.7807 2.03855 3.33849 0.386915 1.89933C0.203882 1.73983 0.0405817 1.57527 -0.0133181 1.3471C-0.0132523 1.27871 -0.0132513 1.21029 -0.0132513 1.1419Z" fill="#232536"/>
</g>
<defs>
<clipPath id="clip0_2795_2346">
<rect width="6" height="12" fill="white" transform="translate(12 0.5) rotate(90)"/>
</clipPath>
</defs>
</svg>
