<svg width="28" height="28" viewBox="0 0 28 28" fill="none" xmlns="http://www.w3.org/2000/svg">
<rect width="28" height="28" rx="2" transform="matrix(-4.37114e-08 1 1 4.37114e-08 0 0)" fill="#BB1807" fill-opacity="0.12"/>
<g clip-path="url(#clip0_4392_3141)">
<path d="M19.0097 11.7517C18.9636 11.5751 18.89 11.4166 18.7414 11.2988C18.4922 11.1014 18.1304 11.0973 17.8809 11.2962C17.8325 11.3347 17.7871 11.3773 17.7434 11.421C16.5255 12.6384 15.308 13.8561 14.0907 15.0741C14.0633 15.1016 14.0396 15.1328 13.9843 15.1968C13.9555 15.1479 13.9417 15.108 13.9149 15.0811C12.6891 13.8531 11.4617 12.6269 10.2359 11.3989C10.0198 11.1825 9.77241 11.0919 9.47196 11.1846C9.02541 11.3225 8.84418 11.8924 9.12938 12.2625C9.16113 12.3037 9.19574 12.3432 9.23252 12.38C10.6435 13.7917 12.0547 15.2032 13.4664 16.6142C13.7303 16.8779 14.0582 16.9319 14.3557 16.7566C14.4276 16.7142 14.4915 16.655 14.5511 16.5955C15.9265 15.222 17.2999 13.8465 18.6763 12.474C18.8288 12.3219 18.9649 12.165 19.0098 11.9474C19.0097 11.8821 19.0097 11.8169 19.0097 11.7517Z" fill="#BB1807"/>
</g>
<defs>
<clipPath id="clip0_4392_3141">
<rect width="10" height="10" fill="white" transform="matrix(-4.37114e-08 1 1 4.37114e-08 9 9)"/>
</clipPath>
</defs>
</svg>
