<svg width="28" height="28" viewBox="0 0 28 28" fill="none" xmlns="http://www.w3.org/2000/svg">
<rect y="28" width="28" height="28" rx="2" transform="rotate(-90 0 28)" fill="#BB1807" fill-opacity="0.12"/>
<g clip-path="url(#clip0_4392_3131)">
<path d="M19.0097 16.2483C18.9636 16.4249 18.89 16.5834 18.7414 16.7012C18.4922 16.8986 18.1304 16.9027 17.8809 16.7038C17.8325 16.6653 17.7871 16.6227 17.7434 16.579C16.5255 15.3616 15.308 14.1439 14.0907 12.9259C14.0633 12.8984 14.0396 12.8672 13.9843 12.8032C13.9555 12.8521 13.9417 12.892 13.9149 12.9189C12.6891 14.1469 11.4617 15.3731 10.2359 16.6011C10.0198 16.8175 9.77241 16.9081 9.47196 16.8154C9.02541 16.6775 8.84418 16.1076 9.12938 15.7375C9.16113 15.6963 9.19574 15.6568 9.23252 15.62C10.6435 14.2083 12.0547 12.7968 13.4664 11.3858C13.7303 11.1221 14.0582 11.0681 14.3557 11.2434C14.4276 11.2858 14.4915 11.345 14.5511 11.4045C15.9265 12.778 17.2999 14.1535 18.6763 15.526C18.8288 15.6781 18.9649 15.835 19.0098 16.0526C19.0097 16.1179 19.0097 16.1831 19.0097 16.2483Z" fill="#BB1807"/>
</g>
<defs>
<clipPath id="clip0_4392_3131">
<rect width="10" height="10" fill="white" transform="translate(9 19) rotate(-90)"/>
</clipPath>
</defs>
</svg>
