<svg width="10" height="10" viewBox="0 0 10 10" fill="none" xmlns="http://www.w3.org/2000/svg">
<g clip-path="url(#clip0_3245_198)">
<path d="M4.3457 1.30664L4.7793 0.873047C4.96289 0.689453 5.25977 0.689453 5.44141 0.873047L9.23828 4.66797C9.42188 4.85156 9.42188 5.14844 9.23828 5.33008L5.44141 9.12695C5.25781 9.31055 4.96094 9.31055 4.7793 9.12695L4.3457 8.69336C4.16016 8.50781 4.16406 8.20508 4.35352 8.02344L6.70703 5.78125H1.09375C0.833984 5.78125 0.625 5.57227 0.625 5.3125V4.6875C0.625 4.42773 0.833984 4.21875 1.09375 4.21875H6.70703L4.35352 1.97656C4.16211 1.79492 4.1582 1.49219 4.3457 1.30664Z" fill="white"/>
</g>
<defs>
<clipPath id="clip0_3245_198">
<rect width="10" height="10" fill="white"/>
</clipPath>
</defs>
</svg>
