<svg width="79" height="55" viewBox="0 0 79 55" fill="none" xmlns="http://www.w3.org/2000/svg">
<path d="M50.0693 34.967L55.0281 38.3352C55.0281 38.3352 58.4252 41.989 62.2552 42.8736C66.0852 43.7582 71.0494 46.5275 71.7398 47.0934C72.4302 47.6594 72.622 49.8407 72.622 49.8407L77.2081 51.489L79.0272 46.7033L50.5351 30.0385L50.0693 34.967Z" fill="#FCA850"/>
<g style="mix-blend-mode:multiply">
<path d="M52.8912 34.7967C53.8281 35.544 54.7103 36.3681 55.6637 37.0989C60.6334 40.9011 67.2578 41.9011 72.3973 45.478C73.6256 46.4403 74.906 47.3336 76.2328 48.1538C76.8482 48.4905 77.5062 48.7418 78.1889 48.9011L77.1972 51.5L72.611 49.8516C72.611 49.8516 72.4192 47.6538 71.7289 47.1044C71.0385 46.5549 66.0743 43.7637 62.2443 42.8846C58.4143 42.0055 55.0007 38.3352 55.0007 38.3352L50.0693 34.967L50.2556 32.978C51.1759 33.521 52.0567 34.1287 52.8912 34.7967Z" fill="#D6D2C8"/>
</g>
<path d="M46.2062 39.2802L34.3984 33.2308" stroke="#1D212A" stroke-width="0.88" stroke-linecap="round" stroke-linejoin="round"/>
<path d="M50.5133 30.0494L50.0421 34.9945L47.4011 41.3242C47.4011 41.3242 9.89555 25.7308 0 3.52197L50.5133 30.0494Z" fill="white"/>
<path d="M48.4097 30.967L5.37012 7.46704" stroke="#1D212A" stroke-width="0.88" stroke-linecap="round" stroke-linejoin="round"/>
<path d="M49.4445 36.4121L47.4062 41.2967C47.4062 41.2967 11.5006 26.3681 0.68457 4.90109C20.7825 25.5879 43.9214 34.4945 49.4445 36.4121Z" fill="#DCDCDC"/>
<path d="M74.7266 47.9835C74.7266 48.2248 74.7979 48.4606 74.9316 48.6612C75.0652 48.8618 75.2552 49.0181 75.4775 49.1104C75.6997 49.2028 75.9443 49.2269 76.1803 49.1799C76.4162 49.1328 76.633 49.0166 76.8031 48.846C76.9732 48.6754 77.089 48.4581 77.136 48.2215C77.1829 47.9849 77.1588 47.7396 77.0668 47.5167C76.9747 47.2938 76.8188 47.1033 76.6188 46.9693C76.4187 46.8353 76.1835 46.7637 75.943 46.7637C75.6204 46.7637 75.311 46.8922 75.0828 47.121C74.8547 47.3497 74.7266 47.66 74.7266 47.9835Z" fill="#1D212A"/>
<path d="M58.6614 13.5165C58.6614 13.5165 52.9301 6.82417 39.484 10.3791C26.0543 6.82417 20.3066 13.5165 20.3066 13.5165C6.35636 26.4615 16.7231 44.8901 16.7231 44.8901C23.6927 53.9396 37.9443 54.9176 39.4073 54.9945H39.5278C40.9908 54.9176 55.2423 53.9396 62.212 44.8901C62.2448 44.8901 72.6116 26.4615 58.6614 13.5165Z" fill="#BB1807"/>
<path d="M60.2336 30.9341C60.8385 33.2163 60.8977 35.6095 60.4064 37.919C59.9151 40.2286 58.8872 42.3892 57.4062 44.2253" stroke="#1D212A" stroke-width="0.88" stroke-linecap="round" stroke-linejoin="round"/>
<path d="M60.9297 20.6758C61.0009 20.6758 61.0612 20.7363 61.0886 20.8077C61.4544 21.7218 61.6261 22.7024 61.5927 23.6868" stroke="#1D212A" stroke-width="0.88" stroke-linecap="round" stroke-linejoin="round"/>
<path d="M17.2979 33.5165C17.3504 36.834 18.5076 40.0387 20.5854 42.6209" stroke="#1D212A" stroke-width="0.88" stroke-linecap="round" stroke-linejoin="round"/>
<g style="mix-blend-mode:multiply">
<path d="M62.3325 17.8022C62.5239 19.0624 62.621 20.3352 62.6229 21.6099C62.6229 35.7692 50.7822 47.2527 36.1745 47.2527C31.6232 47.2809 27.1407 46.1386 23.155 43.9348C19.1693 41.7311 15.8136 38.5395 13.4082 34.6648C13.9693 38.2322 15.1017 41.6851 16.7615 44.8901C23.7311 53.9396 37.9827 54.9176 39.4402 54.9945H39.5662C41.0237 54.9176 55.2752 53.9396 62.2449 44.8901C62.2449 44.8901 70.524 30.1758 62.3325 17.8022Z" fill="#BD92AA"/>
</g>
<path d="M44.6506 9.59342C44.6506 9.59342 51.1544 15.8297 57.9871 19.9396C57.9871 19.9396 59.0829 20.8352 58.4583 20.6484C57.8337 20.4615 51.5325 17.6264 49.6476 16.3956C47.7628 15.1649 42.3438 11.055 41.2096 11.956C40.0754 12.8571 35.8892 17.011 34.4756 19.7033C34.085 18.6648 34.1006 17.5165 34.5194 16.489C35.1898 15.0717 35.9779 13.7134 36.8755 12.4286C36.8755 12.4286 30.9853 12.2363 27.5005 14.9341C27.5005 14.9341 28.3936 13.1813 32.777 11.7637C37.1604 10.3462 34.9687 10.6648 33.5331 10.5385C32.0976 10.4121 21.3253 9.87363 19.5391 10.3022C17.7529 10.7308 26.8868 7.23078 34.2838 8.5055C34.2838 8.5055 35.0892 8.5055 34.3824 7.79671C33.6756 7.08791 30.7058 2.54945 30.9853 0C30.9853 0 34.6619 7.56045 37.8672 8.03298C37.8672 8.03298 42.1849 7.15385 45.5382 6.15385C46.7598 5.78653 48.0125 5.53271 49.2805 5.39561C49.7529 5.33185 50.2286 5.29699 50.7051 5.29121C51.2257 5.34066 45.3793 7.27473 43.4013 8.74176C43.4013 8.74176 48.7271 7.93956 50.6558 7.98352C52.5845 8.02747 58.7158 8.88462 61.1651 11.2802C61.1431 11.2912 50.7764 7.18133 44.6506 9.59342Z" fill="#B4D627"/>
<path d="M57.0885 20.0055C55.4447 19.6703 49.5983 16.489 46.7272 14.4121C45.1522 13.2271 43.3807 12.3305 41.4945 11.7637C38.8014 14.0735 36.4394 16.7453 34.4756 19.7033" stroke="#1D212A" stroke-width="0.88" stroke-linecap="round" stroke-linejoin="round"/>
<path d="M27.5 14.9341C27.5 14.9341 28.9958 12.6978 34.3491 11.2418L38.2174 10" stroke="#1D212A" stroke-width="0.88" stroke-linecap="round" stroke-linejoin="round"/>
<path d="M41.5104 10.9011H38.0146V6.50551C38.0146 6.27389 38.0601 6.04454 38.1485 5.83055C38.2369 5.61656 38.3665 5.42212 38.5298 5.25835C38.6931 5.09457 38.887 4.96466 39.1004 4.87602C39.3138 4.78738 39.5425 4.74176 39.7735 4.74176C40.24 4.74176 40.6873 4.92758 41.0172 5.25835C41.347 5.58911 41.5323 6.03774 41.5323 6.50551L41.5104 10.9011Z" fill="#B4D627"/>
<g style="mix-blend-mode:multiply">
<path d="M41.5104 7.71428V10.9011H38.0146V8.98351C38.6566 9.00565 39.2963 8.89531 39.894 8.65933C40.4701 8.41336 41.0132 8.09586 41.5104 7.71428Z" fill="#B4D627"/>
</g>
<path d="M41.5107 10.9011V5.76373" stroke="#1D212A" stroke-width="0.88" stroke-linecap="round" stroke-linejoin="round"/>
<path d="M28.9634 34.967L23.9992 38.3352C23.9992 38.3352 20.6075 41.989 16.772 42.8736C12.9365 43.7582 8.0052 46.5275 7.28742 47.0934C6.56963 47.6594 6.40525 49.8407 6.40525 49.8407L1.81911 51.489L0 46.7033L28.4922 30.0385L28.9634 34.967Z" fill="#FCA850"/>
<g style="mix-blend-mode:multiply">
<path d="M26.1091 34.7967C25.1721 35.544 24.2954 36.3681 23.342 37.0989C18.3723 40.9011 11.7424 41.9011 6.60837 45.478C5.38094 46.4414 4.10042 47.3348 2.77288 48.1539C2.15945 48.4904 1.50324 48.7418 0.822266 48.9011L1.80853 51.5L6.39467 49.8517C6.39467 49.8517 6.58645 47.6538 7.27684 47.1044C7.96722 46.5549 12.9314 43.7637 16.7614 42.8846C20.5914 42.0055 23.9886 38.3462 23.9886 38.3462L28.9528 34.978L28.761 32.989C27.8362 33.529 26.9501 34.133 26.1091 34.7967Z" fill="#D6D2C8"/>
</g>
<path d="M32.793 39.2802L44.6063 33.2308" stroke="#1D212A" stroke-width="0.88" stroke-linecap="round" stroke-linejoin="round"/>
<path d="M28.4922 30.0494L28.9634 34.9945L31.5989 41.3242C31.5989 41.3242 69.1045 25.7308 79 3.52197L28.4922 30.0494Z" fill="white"/>
<path d="M30.5967 30.967L73.6308 7.46704" stroke="#1D212A" stroke-width="0.88" stroke-linecap="round" stroke-linejoin="round"/>
<path d="M29.5605 36.4121L31.5933 41.2967C31.5933 41.2967 67.499 26.3681 78.315 4.91759C58.2171 25.5879 35.0836 34.4945 29.5605 36.4121Z" fill="#DCDCDC"/>
<path d="M4.26308 47.9835C4.26416 48.2263 4.19328 48.464 4.05944 48.6663C3.92559 48.8686 3.73482 49.0265 3.51133 49.1199C3.28784 49.2134 3.04171 49.2381 2.80418 49.191C2.56665 49.1439 2.34843 49.0271 2.17722 48.8554C2.00601 48.6837 1.88952 48.4649 1.84255 48.2267C1.79558 47.9885 1.82024 47.7417 1.9134 47.5176C2.00656 47.2935 2.16402 47.1021 2.36579 46.9679C2.56756 46.8337 2.80455 46.7626 3.04668 46.7637C3.36884 46.7652 3.6774 46.8942 3.90521 47.1226C4.13302 47.351 4.26164 47.6605 4.26308 47.9835Z" fill="#1D212A"/>
</svg>
