<svg width="52" height="52" viewBox="0 0 52 52" fill="none" xmlns="http://www.w3.org/2000/svg">
<rect width="52" height="52" rx="2" fill="#BB1807" fill-opacity="0.12"/>
<path d="M18.62 36V32.248C19.1427 31.9213 19.796 31.4687 20.58 30.89C21.364 30.302 22.1853 29.644 23.044 28.916C23.912 28.188 24.7193 27.4507 25.466 26.704C26.222 25.948 26.838 25.234 27.314 24.562C27.79 23.8807 28.028 23.3067 28.028 22.84C28.028 22.364 27.9113 21.93 27.678 21.538C27.4447 21.1367 27.132 20.8193 26.74 20.586C26.3573 20.3527 25.928 20.236 25.452 20.236C24.976 20.236 24.542 20.3527 24.15 20.586C23.758 20.8193 23.4407 21.1367 23.198 21.538C22.9647 21.93 22.848 22.364 22.848 22.84H18.648C18.648 21.552 18.9607 20.3947 19.586 19.368C20.2113 18.3413 21.0373 17.5293 22.064 16.932C23.1 16.3347 24.2293 16.036 25.452 16.036C26.6933 16.036 27.8273 16.3393 28.854 16.946C29.8807 17.5527 30.6973 18.374 31.304 19.41C31.92 20.4367 32.228 21.58 32.228 22.84C32.228 23.4653 32.144 24.0627 31.976 24.632C31.808 25.192 31.5607 25.7473 31.234 26.298C30.9167 26.8393 30.52 27.3947 30.044 27.964C29.568 28.5333 29.0173 29.1353 28.392 29.77C27.776 30.3953 27.0947 31.072 26.348 31.8H32.228V36H18.62Z" fill="#BB1807"/>
</svg>
