<svg width="52" height="52" viewBox="0 0 52 52" fill="none" xmlns="http://www.w3.org/2000/svg">
<rect width="52" height="52" rx="2" fill="#BB1807" fill-opacity="0.12"/>
<path d="M25.808 36.364C24.632 36.364 23.554 36.0747 22.574 35.496C21.594 34.9173 20.81 34.138 20.222 33.158C19.634 32.178 19.34 31.0907 19.34 29.896H23.54C23.54 30.3067 23.6427 30.6847 23.848 31.03C24.0533 31.3753 24.3287 31.6507 24.674 31.856C25.0193 32.0613 25.3973 32.164 25.808 32.164C26.2187 32.164 26.5967 32.0613 26.942 31.856C27.2873 31.6507 27.5627 31.3753 27.768 31.03C27.9733 30.6847 28.076 30.3067 28.076 29.896C28.076 29.3267 27.9173 28.8553 27.6 28.482C27.2827 28.0993 26.8347 27.8147 26.256 27.628C25.6867 27.4413 25.0147 27.348 24.24 27.348V24.156C25.2667 24.156 26.074 23.9833 26.662 23.638C27.25 23.2833 27.544 22.756 27.544 22.056C27.544 21.72 27.46 21.412 27.292 21.132C27.1333 20.852 26.914 20.628 26.634 20.46C26.3633 20.292 26.06 20.208 25.724 20.208C25.3787 20.208 25.038 20.292 24.702 20.46C24.366 20.628 24.086 20.852 23.862 21.132C23.6473 21.412 23.54 21.72 23.54 22.056H19.34C19.34 21.2253 19.508 20.446 19.844 19.718C20.1893 18.9807 20.656 18.3367 21.244 17.786C21.8413 17.226 22.518 16.792 23.274 16.484C24.0393 16.1667 24.8373 16.008 25.668 16.008C26.76 16.008 27.768 16.2787 28.692 16.82C29.616 17.3613 30.3533 18.0893 30.904 19.004C31.464 19.9187 31.744 20.936 31.744 22.056C31.744 22.7093 31.604 23.386 31.324 24.086C31.044 24.786 30.624 25.2853 30.064 25.584C30.5493 25.7707 30.9553 26.102 31.282 26.578C31.6087 27.0447 31.856 27.5767 32.024 28.174C32.192 28.762 32.276 29.336 32.276 29.896C32.276 31.0813 31.982 32.164 31.394 33.144C30.8153 34.124 30.036 34.908 29.056 35.496C28.076 36.0747 26.9933 36.364 25.808 36.364Z" fill="#BB1807"/>
</svg>
