<svg width="52" height="52" viewBox="0 0 52 52" fill="none" xmlns="http://www.w3.org/2000/svg">
<rect width="52" height="52" rx="2" fill="#BB1807" fill-opacity="0.12"/>
<path d="M25.368 36.364C24.0707 36.364 22.8993 36.0513 21.854 35.426C20.818 34.7913 19.9967 33.956 19.39 32.92C18.7833 31.8747 18.48 30.736 18.48 29.504H22.68C22.68 29.9987 22.8013 30.4467 23.044 30.848C23.2867 31.2493 23.6087 31.5713 24.01 31.814C24.4207 32.0473 24.8733 32.164 25.368 32.164C25.8533 32.164 26.2967 32.0473 26.698 31.814C27.0993 31.5713 27.4213 31.2493 27.664 30.848C27.9067 30.4467 28.028 29.9987 28.028 29.504C28.028 29.0093 27.93 28.5567 27.734 28.146C27.5473 27.726 27.202 27.39 26.698 27.138C26.2033 26.886 25.4893 26.76 24.556 26.76H19.376L21.56 16.4H31.444V20.6H24.976L24.556 22.56L25.452 22.588C26.7773 22.644 27.9487 22.9847 28.966 23.61C29.9833 24.2353 30.7813 25.0613 31.36 26.088C31.9387 27.1147 32.228 28.2533 32.228 29.504C32.228 30.4373 32.0507 31.3193 31.696 32.15C31.3413 32.9807 30.8513 33.7133 30.226 34.348C29.6007 34.9733 28.8727 35.468 28.042 35.832C27.2113 36.1867 26.32 36.364 25.368 36.364Z" fill="#BB1807"/>
</svg>
