<svg width="52" height="52" viewBox="0 0 52 52" fill="none" xmlns="http://www.w3.org/2000/svg">
<rect width="52" height="52" rx="2" fill="#BB1807" fill-opacity="0.12"/>
<path d="M25.672 36.364C24.4027 36.364 23.2407 36.0513 22.186 35.426C21.1313 34.7913 20.2867 33.9467 19.652 32.892C19.0173 31.828 18.7 30.652 18.7 29.364C18.7 28.7573 18.7747 28.16 18.924 27.572C19.0733 26.9747 19.3067 26.4053 19.624 25.864L25.084 16.4H29.956L26.484 22.392C27.1933 22.476 27.8607 22.658 28.486 22.938C29.1207 23.2087 29.6947 23.5633 30.208 24.002C30.7213 24.4313 31.1647 24.926 31.538 25.486C31.9113 26.046 32.196 26.6527 32.392 27.306C32.5973 27.9593 32.7 28.6453 32.7 29.364C32.7 30.3253 32.518 31.2307 32.154 32.08C31.79 32.92 31.286 33.662 30.642 34.306C29.998 34.95 29.2513 35.454 28.402 35.818C27.5527 36.182 26.6427 36.364 25.672 36.364ZM25.672 32.164C26.2133 32.164 26.694 32.0333 27.114 31.772C27.5433 31.5013 27.8793 31.156 28.122 30.736C28.374 30.3067 28.5 29.8587 28.5 29.392C28.5 28.8787 28.3787 28.4073 28.136 27.978C27.8933 27.5487 27.5573 27.208 27.128 26.956C26.708 26.6947 26.232 26.564 25.7 26.564C25.14 26.564 24.65 26.6993 24.23 26.97C23.81 27.2407 23.4833 27.5907 23.25 28.02C23.0167 28.4493 22.9 28.9067 22.9 29.392C22.9 29.924 23.0307 30.4 23.292 30.82C23.5627 31.2307 23.908 31.5573 24.328 31.8C24.748 32.0427 25.196 32.164 25.672 32.164Z" fill="#BB1807"/>
</svg>
