<svg width="54" height="54" viewBox="0 0 54 54" fill="none" xmlns="http://www.w3.org/2000/svg">
<g clip-path="url(#clip0_2661_185)">
<path d="M54.0227 27.012C54.0227 32.2474 52.5268 37.3832 49.6349 41.771C49.0365 42.7183 48.3883 43.566 47.6404 44.4136C45.9451 46.4081 44.0005 48.1034 41.8565 49.5494C41.2581 49.9483 40.6598 50.2973 40.0615 50.6463C36.8205 52.4413 33.2304 53.5383 29.5906 53.8873C28.7429 53.987 27.8953 53.987 27.0476 53.987C24.7041 53.987 22.3606 53.6879 20.067 53.0895C18.7706 52.7405 17.5241 52.2918 16.2775 51.7931C15.6293 51.5438 15.031 51.2447 14.4327 50.8956C12.9867 50.1477 11.6404 49.2502 10.344 48.253C9.74568 47.8042 9.19721 47.3056 8.64873 46.807C-2.27094 36.6851 -2.91914 19.5826 7.20275 8.66295C17.3246 -2.25672 34.4271 -2.95478 45.3468 7.21696C50.8814 12.3028 54.0227 19.4829 54.0227 27.012Z" fill="#E6E6E6"/>
<path d="M20.4688 29.4552C20.4688 29.4552 22.912 36.2862 21.0172 40.1256C19.1225 43.9649 24.0089 48.3028 24.0089 48.3028C24.0089 48.3028 36.8732 41.771 35.2278 38.4801C33.5823 35.1893 30.8399 30.8513 31.3884 28.1089L20.4688 29.4552Z" fill="#FFB8B8"/>
<path d="M25.2492 32.048C30.0683 32.048 33.975 28.1413 33.975 23.3222C33.975 18.5031 30.0683 14.5965 25.2492 14.5965C20.4301 14.5965 16.5234 18.5031 16.5234 23.3222C16.5234 28.1413 20.4301 32.048 25.2492 32.048Z" fill="#FFB8B8"/>
<path d="M20.016 53.0895C18.7196 52.7405 17.4731 52.2917 16.2266 51.7931L16.4759 45.1616L18.9191 39.6768C19.4676 40.1255 20.0659 40.4746 20.6642 40.8236C20.8138 40.9233 20.9634 40.9732 21.113 41.0729C23.4066 42.1699 27.1961 43.1671 30.836 40.4247C32.1822 39.3776 33.3291 38.0812 34.1767 36.6352L41.1074 40.5244L41.4565 44.7128L41.8554 49.5992C41.257 49.9981 40.6587 50.3471 40.0604 50.6962C36.8194 52.4912 33.2293 53.5881 29.5894 53.9372C28.7418 54.0369 27.8942 54.0369 27.0465 54.0369C24.6532 54.0369 22.3097 53.6879 20.016 53.0895Z" fill="#575A89"/>
<path d="M21.7094 35.5882L21.3604 39.1782L21.1609 41.0729L20.9116 43.8652L20.0141 53.0895C18.7177 52.7405 17.4712 52.2918 16.2246 51.7931C15.5764 51.5438 14.9781 51.2447 14.3798 50.8956C12.9338 50.1477 11.5875 49.2502 10.2911 48.253L9.34375 43.7654L9.39361 43.7156L21.7094 35.5882Z" fill="#575A89"/>
<path d="M40.0647 50.6463C36.8237 52.4413 33.2336 53.5383 29.5938 53.8873C29.7932 50.5466 30.0924 47.3555 30.3915 44.5134C30.5411 43.0674 30.7406 41.6713 30.94 40.4247C31.5383 36.4358 32.1865 33.6934 32.6353 33.3444L35.6769 35.3389L47.9428 39.6768L47.6935 44.4136C45.9982 46.4081 44.0536 48.1034 41.9095 49.5494C41.2613 49.9483 40.663 50.3472 40.0647 50.6463Z" fill="#575A89"/>
<path d="M10.3437 48.3028C9.74539 47.8541 9.19691 47.3555 8.64844 46.8569L9.09719 43.8153L9.44622 43.7654L10.9919 43.566L14.3825 50.9455C12.9864 50.1477 11.6401 49.3001 10.3437 48.3028Z" fill="#575A89"/>
<path d="M49.6382 41.771C49.0399 42.7183 48.3917 43.566 47.6437 44.4136C45.9485 46.4081 44.0039 48.1034 41.8598 49.5494C41.2615 49.9483 40.6631 50.2973 40.0648 50.6463L39.7656 49.2502L41.5108 44.7128L43.605 39.1782L47.9928 39.7267C48.5412 40.3749 49.0897 41.0729 49.6382 41.771Z" fill="#575A89"/>
<path d="M33.5778 15.3943C32.2315 13.2502 30.1872 11.6546 27.7939 10.9566L25.9989 12.4026L26.6969 10.7571C26.0986 10.6574 25.5501 10.6574 24.9518 10.6574L23.3562 12.7017L24.0044 10.7073C21.2122 11.0563 18.6692 12.5521 17.0238 14.8458C14.9795 17.7876 14.6304 21.8762 16.6249 24.8181C17.1734 23.1228 17.8216 21.5272 18.37 19.8818C18.8188 19.9316 19.2177 19.9316 19.6664 19.8818L20.3146 18.3361L20.5141 19.8319C22.6083 19.6325 25.6498 19.2336 27.6443 18.8846L27.4448 17.7377L28.5917 18.6851C29.19 18.5355 29.539 18.4358 29.539 18.3361C30.985 20.6796 32.431 22.1754 33.9268 24.5688C34.4753 21.1782 35.4227 18.4358 33.5778 15.3943Z" fill="#2F2E41"/>
<path d="M33.0827 24.2197C33.4132 24.2197 33.6811 23.684 33.6811 23.0231C33.6811 22.3622 33.4132 21.8264 33.0827 21.8264C32.7523 21.8264 32.4844 22.3622 32.4844 23.0231C32.4844 23.684 32.7523 24.2197 33.0827 24.2197Z" fill="#FFB8B8"/>
</g>
<defs>
<clipPath id="clip0_2661_185">
<rect width="54" height="54" fill="white"/>
</clipPath>
</defs>
</svg>
