<svg width="14" height="14" viewBox="0 0 14 14" fill="none" xmlns="http://www.w3.org/2000/svg">
<path d="M10.8841 9.76166C11.2128 10.0894 11.5365 10.4116 11.8596 10.7344C12.3842 11.2585 12.9101 11.7812 13.4318 12.3081C13.6531 12.5316 13.734 12.8011 13.64 13.1073C13.5489 13.4041 13.3434 13.5886 13.0414 13.6527C12.736 13.7176 12.4877 13.6035 12.2727 13.3876C11.4879 12.5995 10.7001 11.8144 9.91436 11.0272C9.86661 10.9794 9.82747 10.923 9.78154 10.8673C8.27613 11.9586 6.6366 12.3281 4.84859 11.9168C3.43294 11.5911 2.29281 10.8175 1.44231 9.64164C-0.293707 7.24148 0.0296686 3.92763 2.18268 1.91431C4.35433 -0.116461 7.66788 -0.218091 9.95638 1.67417C12.3016 3.6133 12.8451 7.13708 10.8841 9.76166ZM6.20344 10.491C8.57963 10.4917 10.4903 8.58659 10.4969 6.21005C10.5035 3.82798 8.59075 1.90991 6.20631 1.90744C3.83174 1.90501 1.91936 3.81221 1.91348 6.1886C1.9076 8.57245 3.81988 10.4903 6.20344 10.491Z" fill="#BB8E66"/>
</svg>
